# xmcd
#
# Track frame offsets:
#	150
#	15422
#	32602
#	60600
#	84275
#	102279
#	125447
#	145785
#	164077
#	178567
#	202005
#	222085
#	244185
#	265700
#
# Disc length: 3746 seconds
#
# Revision: 0
# Processed by: cddbd v1.4PL0 Copyright (c) Steve Scherf et al.
# Submitted via: EasyCDDAExtractor 5.0.4.1
#
DISCID=bb0ea00e
DTITLE=Calvin Owens Blues Orchestra - Stop Lying in My Face
DYEAR=2000
DGENRE=Blues
TTITLE0=Stop Lying in My Face
TTITLE1=Double Dealing
TTITLE2=Don't Walk Away
TTITLE3=Everybody Lives the Blues
TTITLE4=Hot Meat
TTITLE5=Gee Baby (Ain't I Good to You)
TTITLE6=Take Me to the Zydeco
TTITLE7=Dam If I Do
TTITLE8=Everybody is Everything
TTITLE9=Sitting Here
TTITLE10=Tell it to the World
TTITLE11=Mr. Lucky
TTITLE12=The Best in Me
TTITLE13=Stop Lying in My Face- Intrumental
EXTD=
EXTT0=
EXTT1=
EXTT2=
EXTT3=
EXTT4=
EXTT5=
EXTT6=
EXTT7=
EXTT8=
EXTT9=
EXTT10=
EXTT11=
EXTT12=
EXTT13=
PLAYORDER=
